<?xml version="1.0" standalone="no"?>
<!DOCTYPE svg PUBLIC "-//W3C//DTD SVG 20010904//EN"
 "http://www.w3.org/TR/2001/REC-SVG-20010904/DTD/svg10.dtd">
<svg version="1.0" xmlns="http://www.w3.org/2000/svg"
 width="980.000000pt" height="980.000000pt" viewBox="0 0 980.000000 980.000000"
 preserveAspectRatio="xMidYMid meet">

<g transform="translate(0.000000,980.000000) scale(0.100000,-0.100000)"
fill="#000000" stroke="none">
<path d="M4798 7615 c-132 -26 -247 -110 -319 -230 -20 -33 -94 -154 -164
-270 -70 -115 -190 -311 -265 -435 -211 -349 -946 -1555 -1005 -1650 -29 -47
-166 -272 -305 -500 -139 -228 -321 -527 -405 -665 -535 -875 -661 -1085 -676
-1125 -40 -106 -28 -243 28 -339 68 -116 199 -200 344 -220 64 -9 771 -12
2924 -9 l2840 3 65 23 c135 49 252 163 287 282 23 75 21 191 -4 255 -15 38
-626 1054 -903 1500 -61 99 -139 227 -290 475 -79 129 -198 325 -265 435 -218
358 -880 1445 -1206 1979 -124 205 -211 337 -241 367 -62 62 -172 116 -263
129 -85 12 -93 12 -177 -5z m167 -276 c48 -14 100 -64 147 -144 19 -33 92
-153 162 -267 291 -479 387 -636 656 -1078 419 -687 625 -1026 795 -1305 84
-137 189 -311 235 -385 46 -74 158 -259 250 -410 241 -397 431 -709 559 -918
62 -101 115 -198 118 -216 10 -61 -49 -135 -125 -156 -52 -14 -5672 -14 -5724
0 -76 22 -135 95 -125 158 4 19 37 84 75 146 39 61 133 215 209 341 77 127
198 325 268 440 71 116 146 239 168 275 22 36 141 232 265 435 123 204 248
408 277 455 29 47 115 189 192 315 77 127 229 376 338 555 109 179 279 458
378 620 646 1062 653 1073 681 1099 48 45 126 61 201 40z"/>
<path d="M3826 5130 c-48 -15 -101 -58 -126 -101 -18 -33 -23 -57 -22 -109 l0
-67 -39 -12 c-157 -47 -199 -255 -73 -359 92 -76 202 -68 286 19 l48 49 51
-31 c37 -23 48 -36 44 -48 -94 -229 -79 -466 41 -678 22 -37 40 -71 42 -75 2
-4 -38 -35 -90 -68 l-93 -60 -29 36 c-62 76 -177 102 -261 58 -80 -41 -128
-139 -111 -227 14 -72 87 -150 155 -163 29 -6 29 -7 28 -73 -1 -53 4 -75 24
-111 79 -143 294 -141 368 4 32 62 33 134 2 193 -11 23 -21 44 -21 47 0 6 227
156 235 156 3 0 28 -15 56 -33 l51 -33 2 -99 c3 -108 13 -140 63 -187 15 -15
41 -32 56 -37 40 -15 751 -15 780 0 33 17 77 61 95 94 11 20 16 62 18 130 l2
99 52 34 52 33 101 -65 c154 -98 143 -85 120 -132 -45 -88 -32 -182 33 -247
140 -140 362 -41 357 159 l-2 62 32 6 c80 16 157 112 157 196 0 142 -126 242
-262 209 -40 -9 -63 -23 -100 -60 l-48 -48 -91 60 c-50 33 -89 63 -87 67 2 4
20 38 42 75 107 188 132 421 66 613 -11 31 -20 63 -20 70 0 7 22 26 48 42 l48
29 33 -38 c77 -92 202 -104 295 -27 118 97 94 277 -46 349 -21 10 -44 19 -52
19 -11 0 -14 15 -14 69 1 85 -26 138 -90 181 -189 125 -410 -88 -294 -284 l20
-34 -51 -32 c-32 -20 -56 -29 -63 -24 -6 5 -49 39 -95 77 -255 205 -620 276
-945 181 -154 -44 -265 -104 -388 -209 l-66 -56 -48 32 c-26 18 -48 33 -50 34
-2 2 7 21 19 45 53 101 10 233 -94 286 -36 19 -113 26 -151 14z m1274 -405
c156 -37 316 -146 399 -271 176 -263 87 -576 -215 -757 -112 -68 -144 -116
-153 -229 l-6 -83 -225 0 -225 0 -6 82 c-9 115 -43 165 -163 235 -192 112
-306 307 -293 498 17 261 234 478 535 535 92 17 257 13 352 -10z"/>
<path d="M4555 4211 c-103 -26 -165 -104 -165 -208 1 -99 69 -183 164 -203
186 -37 319 156 220 317 -44 71 -143 113 -219 94z"/>
<path d="M5149 4206 c-66 -18 -104 -49 -135 -111 -33 -69 -30 -131 10 -199 88
-150 322 -125 376 40 52 157 -92 313 -251 270z"/>
<path d="M4834 3723 c-31 -43 -61 -83 -66 -89 -4 -6 -6 -19 -2 -28 5 -14 25
-16 135 -16 102 0 131 3 135 14 6 15 -113 187 -133 193 -6 2 -37 -31 -69 -74z"/>
</g>
</svg>
