<?xml version="1.0" standalone="no"?>
<!DOCTYPE svg PUBLIC "-//W3C//DTD SVG 20010904//EN"
 "http://www.w3.org/TR/2001/REC-SVG-20010904/DTD/svg10.dtd">
<svg version="1.0" xmlns="http://www.w3.org/2000/svg"
 width="225.000000pt" height="225.000000pt" viewBox="0 0 225.000000 225.000000"
 preserveAspectRatio="xMidYMid meet">

<g transform="translate(0.000000,225.000000) scale(0.100000,-0.100000)"
fill="#000000" stroke="none">
<path d="M927 1436 c-7 -17 42 -97 86 -144 l32 -33 0 -202 0 -202 25 0 c25 0
25 1 28 94 3 93 15 132 35 112 5 -5 12 -53 16 -108 6 -96 6 -98 31 -98 l25 0
0 202 0 202 26 28 c78 84 112 163 71 163 -11 0 -23 -10 -29 -22 -6 -13 -29
-47 -52 -75 -41 -52 -42 -53 -95 -53 -49 0 -57 3 -85 36 -18 19 -43 53 -56 75
-26 40 -49 50 -58 25z"/>
<path d="M1084 1396 c-15 -24 -15 -28 0 -52 22 -33 65 -30 83 6 27 55 -49 97
-83 46z"/>
<path d="M763 1333 c4 -20 20 -59 38 -87 36 -58 35 -77 -7 -275 -20 -93 -22
-117 -12 -128 23 -22 37 1 55 87 13 61 22 85 33 85 9 0 14 -8 13 -20 -17 -175
-17 -175 6 -175 23 0 25 6 41 125 19 143 40 224 61 239 14 9 19 23 17 41 l-3
27 -28 -22 c-22 -17 -36 -21 -64 -17 -47 8 -66 26 -97 98 -32 70 -62 83 -53
22z"/>
<path d="M1431 1306 c-36 -74 -47 -85 -94 -93 -27 -4 -43 0 -66 16 l-31 22 0
-26 c0 -15 9 -34 19 -43 22 -19 44 -108 62 -255 8 -68 16 -100 26 -104 30 -12
36 13 25 99 -7 54 -7 86 -1 93 15 15 24 -5 43 -96 14 -65 20 -79 36 -79 10 0
21 3 23 8 3 4 -8 70 -24 147 -35 169 -36 195 -6 243 47 77 61 132 33 132 -8 0
-29 -29 -45 -64z"/>
<path d="M893 1312 c-11 -7 -16 -26 -14 -49 0 -7 10 -17 21 -23 27 -15 60 4
60 33 0 38 -35 59 -67 39z"/>
<path d="M1303 1313 c-21 -8 -16 -61 7 -73 27 -15 60 4 60 33 0 38 -29 56 -67
40z"/>
<path d="M515 1230 c-9 -14 28 -62 69 -91 41 -28 50 -54 74 -219 14 -97 20
-115 36 -118 18 -4 19 1 12 82 -6 74 -5 86 8 86 10 0 16 -9 16 -24 0 -14 4
-27 9 -30 14 -9 22 68 15 144 -6 58 -4 77 11 104 11 21 15 40 11 52 -8 19 -8
19 -19 0 -27 -43 -54 -66 -84 -72 -28 -6 -38 -1 -86 45 -57 54 -62 57 -72 41z"/>
<path d="M642 1228 c-18 -18 -14 -46 7 -58 25 -13 48 -4 56 21 12 38 -35 65
-63 37z"/>
<path d="M1552 1228 c-18 -18 -14 -46 7 -58 25 -13 48 -4 56 21 12 38 -35 65
-63 37z"/>
<path d="M1684 1209 c-52 -55 -78 -69 -116 -63 -28 5 -40 14 -58 47 -21 37
-24 39 -36 22 -12 -16 -11 -23 7 -52 18 -29 20 -43 14 -116 -3 -45 -2 -95 4
-112 l9 -30 7 33 c4 18 14 32 22 32 12 0 14 -11 7 -62 -12 -99 -11 -103 11
-103 17 0 21 13 36 115 23 162 33 190 74 220 42 31 78 77 70 90 -10 16 -19 12
-51 -21z"/>
</g>
</svg>
